<svg xmlns="http://www.w3.org/2000/svg" viewBox="0 0 64 64" x="0px" y="0px"><g data-name="hospital-hospital building-architecture-health clinic-building"><path d="M61,56H59V35h1a1,1,0,0,0,1-1V30a1,1,0,0,0-1-1H47V26H45V56H38V48h2V46H24v2h2v8H19V20h4v3a1,1,0,0,0,1,1H40a1,1,0,0,0,1-1V20h4v4h2V19a1,1,0,0,0-1-1H41V11a1,1,0,0,0-1-1H24a1,1,0,0,0-1,1v7H18a1,1,0,0,0-1,1V29H4a1,1,0,0,0-1,1v4a1,1,0,0,0,1,1H5V51H7V35H17V56H7V53H5v3H3a1,1,0,0,0-1,1v4a1,1,0,0,0,1,1H61a1,1,0,0,0,1-1V57A1,1,0,0,0,61,56ZM25,12H39V22H25ZM47,31H59v2H47Zm0,4H57V56H47ZM33,48h3v8H33Zm-5,0h3v8H28ZM5,33V31H17v2ZM60,60H4V58H60Z"></path><path d="M34,36H30a1,1,0,0,0-1,1v4a1,1,0,0,0,1,1h4a1,1,0,0,0,1-1V37A1,1,0,0,0,34,36Zm-1,4H31V38h2Z"></path><path d="M35,29a1,1,0,0,0-1-1H30a1,1,0,0,0-1,1v4a1,1,0,0,0,1,1h4a1,1,0,0,0,1-1Zm-2,3H31V30h2Z"></path><path d="M42,36H38a1,1,0,0,0-1,1v4a1,1,0,0,0,1,1h4a1,1,0,0,0,1-1V37A1,1,0,0,0,42,36Zm-1,4H39V38h2Z"></path><path d="M43,29a1,1,0,0,0-1-1H38a1,1,0,0,0-1,1v4a1,1,0,0,0,1,1h4a1,1,0,0,0,1-1Zm-2,3H39V30h2Z"></path><path d="M54,45H50a1,1,0,0,0-1,1v4a1,1,0,0,0,1,1h4a1,1,0,0,0,1-1V46A1,1,0,0,0,54,45Zm-1,4H51V47h2Z"></path><path d="M54,37H50a1,1,0,0,0-1,1v4a1,1,0,0,0,1,1h4a1,1,0,0,0,1-1V38A1,1,0,0,0,54,37Zm-1,4H51V39h2Z"></path><path d="M26,36H22a1,1,0,0,0-1,1v4a1,1,0,0,0,1,1h4a1,1,0,0,0,1-1V37A1,1,0,0,0,26,36Zm-1,4H23V38h2Z"></path><path d="M27,29a1,1,0,0,0-1-1H22a1,1,0,0,0-1,1v4a1,1,0,0,0,1,1h4a1,1,0,0,0,1-1Zm-2,3H23V30h2Z"></path><polygon points="33 14 31 14 31 16 29 16 29 18 31 18 31 20 33 20 33 18 35 18 35 16 33 16 33 14"></polygon><path d="M9,50a1,1,0,0,0,1,1h4a1,1,0,0,0,1-1V46a1,1,0,0,0-1-1H10a1,1,0,0,0-1,1Zm2-3h2v2H11Z"></path><path d="M10,43h4a1,1,0,0,0,1-1V38a1,1,0,0,0-1-1H10a1,1,0,0,0-1,1v4A1,1,0,0,0,10,43Zm1-4h2v2H11Z"></path></g></svg>