<svg xmlns="http://www.w3.org/2000/svg" xmlns:xlink="http://www.w3.org/1999/xlink" version="1.1" x="0px" y="0px" viewBox="0 0 100 100" enable-background="new 0 0 100 100" xml:space="preserve"><g><path d="M94.774,63.359h-0.308v-1.313h-1.613v0.839h-1.581v-0.691l2.273-1.472c0.206-0.079,0.344-0.279,0.344-0.499   c0-0.226-0.144-0.424-0.354-0.5c-0.004-0.004-0.006-0.004-0.008-0.004l-0.19-0.117c0.198-0.052,0.343-0.228,0.343-0.44   c0-0.251-0.205-0.456-0.459-0.456c-0.131,0-0.255,0.057-0.34,0.153c-0.085-0.097-0.208-0.153-0.342-0.153   c-0.131,0-0.255,0.057-0.34,0.153c-0.087-0.097-0.209-0.153-0.341-0.153c-0.131,0-0.257,0.057-0.342,0.153   c-0.085-0.097-0.211-0.153-0.342-0.153c-0.079,0-0.156,0.023-0.225,0.062l-0.329-0.755c-0.028-0.068-0.096-0.112-0.168-0.112   h-0.981c-0.104,0-0.186,0.085-0.186,0.187v0.649c-0.051-0.017-0.103-0.03-0.156-0.03c-0.253,0-0.458,0.205-0.458,0.456   c0,0.195,0.124,0.361,0.298,0.424l-0.219,0.134c-0.215,0.076-0.36,0.278-0.36,0.504c0,0.215,0.128,0.407,0.32,0.489l0.575,0.371   v1.802h-0.494v-0.646h-1.097V49.729l-3.999,2.836v1.809h-1.16v0.966h-1.676v0.71h-0.773v5.158h-0.774v-3.547h-1.225v-6.641h-1.097   v-4.514h-0.129v4.514h-1.226v10.188H75.25v-3.806h-1.418v-3.932h-1.546v5.931h-0.775v1.421h-0.953   c-0.361-1.587-0.665-3.918-0.665-7.283c0-6.556,0.499-7.507,0.707-7.619h-0.338l1.104-2.028l-2.209-1.964l-0.245-7.372h-0.012   l-0.245,7.372l-2.212,1.964l1.107,2.028h-0.342c0.211,0.111,0.709,1.063,0.709,7.619c0,4.369-0.51,6.996-0.995,8.507h-1.279v0.839   h-2.049l-0.526-1.67c2.131-0.579,3.701-2.532,3.701-4.844c0-2.769-2.255-5.022-5.022-5.022c-2.77,0-5.023,2.254-5.023,5.022   c0,2.278,1.524,4.206,3.606,4.819l-0.524,1.694h-0.933v-0.388h-0.71v-1.225H56.68v1.225h-0.971   c-0.192-0.399-0.366-0.817-0.525-1.257h0.29v-0.511h-0.467c-0.16-0.498-0.303-1.014-0.428-1.535h0.183v-0.509h-0.301   c-0.551-2.521-0.726-5.103-0.777-6.626h0.406v-0.358h-0.133v-0.104h-0.289c-0.012-0.555-0.008-0.885-0.008-0.903l-0.01-0.058   h-0.115l0.002,0.058c0,0.019,0.004,0.349-0.01,0.903h-0.286v0.104h-0.135v0.358h0.407c-0.055,1.523-0.227,4.105-0.778,6.626h-0.303   v0.509h0.186c-0.125,0.521-0.269,1.037-0.431,1.535h-0.464v0.511h0.29c-0.202,0.557-0.429,1.088-0.688,1.58h-0.834v-1.03h-1.098   v-6.257h-1.984v-4.393h-0.002l-1.351-6.776v-4.178h-0.259v4.178l-1.353,6.776h-0.002v7.938h-0.53V61.4h-1.484v-5.674h-0.257v-0.709   h-1.418v0.709h-1.356v3.547h-1.324v-3.267h-0.004l-2.45-2.087h-0.054l-1.776,1.516v-3.965H32.95v-0.708h-1.999v0.708h-1.065v-0.774   h-1.932v0.774h-1.065v-0.708H25.02v0.708h-1.162v3.547h-1.933v3.461l-1.181-1.206h-0.031l-1.299,1.328v-6.162h-0.677v-0.63h-0.338   v-0.626H17.99v-1.307h-0.147v1.307h-0.41v0.626h-0.338v0.63h-0.679v8.802l-4.506-4.502l-6.621,6.621H5.226l0.003,2.084h89.546   V63.359L94.774,63.359z M61.837,57.094c0.007,0,0.015-0.003,0.022-0.003l1.419,3.486c-0.452,0.165-0.937,0.257-1.441,0.268V57.094z    M62.116,56.996c0.012-0.006,0.023-0.013,0.035-0.018l2.654,2.654c-0.372,0.347-0.801,0.634-1.273,0.841L62.116,56.996z    M62.465,56.468h3.752c-0.01,0.528-0.112,1.029-0.292,1.499l-3.462-1.463C62.465,56.492,62.465,56.481,62.465,56.468z    M62.451,56.195c-0.002-0.009-0.004-0.014-0.006-0.018l3.476-1.416c0.172,0.448,0.276,0.929,0.296,1.434H62.451z M62.101,55.737   c-0.002,0-0.002,0-0.002,0l1.459-3.457c0.445,0.199,0.854,0.465,1.208,0.792L62.101,55.737z M61.837,55.65L61.837,55.65v-3.752   c0.517,0.011,1.007,0.108,1.465,0.279L61.837,55.65z M61.563,55.632l-1.401-3.443c0.437-0.169,0.909-0.267,1.401-0.287V55.632z    M61.317,55.755l-2.64-2.638c0.36-0.338,0.775-0.62,1.23-0.824L61.317,55.755z M57.274,56.195c0.02-0.512,0.126-1.001,0.305-1.454   l3.444,1.454H57.274z M60.999,56.468l-3.467,1.411c-0.159-0.443-0.25-0.916-0.262-1.411H60.999z M61.288,56.938   c0.002,0,0.004,0.002,0.006,0.005l-1.466,3.472c-0.44-0.209-0.843-0.492-1.191-0.83L61.288,56.938z M61.539,57.068   c0.006,0.002,0.016,0.005,0.023,0.007v3.768c-0.521-0.021-1.021-0.134-1.482-0.317L61.539,57.068z M64.999,59.438l-2.651-2.652   c0.006-0.009,0.01-0.017,0.013-0.026l3.458,1.461C65.613,58.67,65.335,59.082,64.999,59.438z M65.813,54.51l-3.488,1.419   c-0.006-0.005-0.01-0.009-0.012-0.015l2.647-2.648C65.312,53.626,65.6,54.045,65.813,54.51z M58.484,53.312l2.624,2.623   l-3.423-1.443C57.888,54.055,58.158,53.657,58.484,53.312z M57.633,58.135l3.476-1.415c0,0.003,0.002,0.005,0.002,0.008   l-2.666,2.664C58.108,59.023,57.832,58.599,57.633,58.135z M89.656,58.27h0.675l0.191,0.438c-0.01,0-0.018-0.003-0.029-0.003   c-0.13,0-0.255,0.057-0.34,0.153c-0.085-0.097-0.209-0.153-0.342-0.153c-0.054,0-0.104,0.014-0.155,0.028V58.27z M89.656,61.32   l1.246,0.804v0.761h-1.246V61.32z M53.569,56.202l0.294,2.332h-0.587L53.569,56.202z M53.313,59.153h0.51l0.461,1.595h-1.429   L53.313,59.153z M53.569,62.017c0.445,0,0.853,0.222,1.176,0.594v0.749h-1.419V62.82H52.23   C52.572,62.323,53.046,62.017,53.569,62.017z"></path><path d="M67.119,45.92h0.089C67.154,45.891,67.119,45.92,67.119,45.92z"></path><path d="M70.6,45.92h0.092C70.691,45.92,70.656,45.891,70.6,45.92z"></path></g></svg>