<svg xmlns="http://www.w3.org/2000/svg" xmlns:xlink="http://www.w3.org/1999/xlink" version="1.1" x="0px" y="0px" viewBox="0 0 100 100" enable-background="new 0 0 100 100" xml:space="preserve"><path d="M24,68.5h9.5V59H24V68.5z M26,61h5.5v5.5H26V61z"></path><path d="M63.5,68.5V59H54v9.5H63.5z M56,61h5.5v5.5H56V61z"></path><path d="M85.948,42.04l-6.911-1.216c1.318-3.016,4.253-10.902,1.327-15.654c-1.499-2.435-4.243-3.67-8.156-3.67H50.59l1.25,2.5H21.5  v22h5v3h-10v7.031H19V76h17.5H46h3h2h15.5H76h5V56.031h2.5V49h-10v-0.736L85.948,42.04z M53.827,23.5h18.382  c3.171,0,5.341,0.914,6.452,2.716c3.014,4.891-1.919,14.817-1.97,14.917l-0.605,1.202l3.55,0.625l-6.396,3.198l-3.211-6.422  l3.324,1.662l0.381-1.059c1.301-3.615,0.602-5.756-0.213-6.917c-0.858-1.221-2.248-1.922-3.811-1.922H53.827l2-4L53.827,23.5z   M23.5,44V26h29.34l0.75,1.5l-3,6h19.118c0.903,0,1.696,0.391,2.175,1.072c0.637,0.906,0.737,2.305,0.303,4.007l-6.63-3.315  L69.924,44H66.5h-33h-7H23.5z M66.5,46v3h-33v-3H66.5z M28.5,46h3v3h-3V46z M38.5,74V61H44v13H38.5z M46,74V59h-9.5v15H21V56.031h28  V74H46z M68.5,74V61H74v13H68.5z M79,74h-3V59h-9.5v15H51V56.031h28V74z M81.5,51v3.031H81V54H51h-2H19v0.031h-0.5V51h8h7h33h7H81.5  z M68.5,49v-3h2.424l0.576,1.152V49H68.5z"></path><circle cx="41.25" cy="63.75" r="1.25"></circle><circle cx="71.25" cy="63.75" r="1.25"></circle><path d="M46.5,38.5V40h2v-5c0-2.568-2.093-3.5-3.5-3.5h-8.5v5H31V30h-2v10h2v-1.5H46.5z M38.5,33.5H45c0.25,0,1.5,0.072,1.5,1.5v1.5  h-8V33.5z"></path><circle cx="33.75" cy="33.75" r="1.854"></circle></svg>