<svg xmlns="http://www.w3.org/2000/svg" xmlns:xlink="http://www.w3.org/1999/xlink" version="1.1" x="0px" y="0px" viewBox="0 0 100 100" enable-background="new 0 0 100 100" xml:space="preserve"><polygon points="94.707,60.675 94.445,60.675 94.445,60.1 93.478,60.1 93.478,58.651 92.706,58.651 92.706,54.691 90.776,54.691   90.776,57.396 89.358,57.396 89.358,54.434 87.94,54.434 87.94,44.004 86.782,44.004 86.782,41.557 86.524,41.557 86.524,44.004   85.108,44.004 85.108,58.555 83.724,58.555 83.724,49.54 83.127,49.54 83.127,47.151 82.276,47.479 82.276,45.033 81.888,45.033   81.888,47.627 79.243,48.645 79.243,49.54 78.721,49.54 78.721,54.917 74.838,54.917 74.838,57.591 73.389,57.591 73.389,47.609   72.68,47.609 72.68,45.549 72.552,45.549 72.552,47.609 71.65,47.609 71.65,59.264 68.92,59.264 68.92,57.977 70.079,57.977   70.079,50.731 65.829,50.731 65.829,49.988 65.057,49.988 65.057,49.13 65.829,49.13 65.829,48.357 64.46,48.357 64.46,47.573   62.368,47.573 62.368,48.357 61.001,48.357 61.001,49.13 61.772,49.13 61.772,49.988 61.001,49.988 61.001,50.731 56.751,50.731   56.751,57.977 57.911,57.977 57.911,59.456 55.23,59.456 55.23,55.85 53.606,55.85 53.606,42.973 51.771,42.973 51.771,41.685   50.595,41.685 50.595,40.591 50.21,40.591 50.21,41.685 49.63,41.685 49.63,39.109 49.179,39.109 49.179,41.685 47.65,41.685   47.65,42.973 45.815,42.973 45.815,50.313 44.929,50.313 44.929,55.593 44.157,55.593 44.157,57.911 42.998,57.911 42.998,38.787   40.551,40.333 37.719,40.333 37.719,37.241 37.396,37.241 37.396,40.333 37.202,40.333 34.756,38.787 34.756,56.751 33.919,56.751   33.919,44.132 30.829,44.132 30.829,52.503 29.089,52.503 29.089,57.332 26.513,57.332 26.513,51.214 25.42,51.214 25.42,50.313   23.488,50.313 23.488,51.214 22.522,51.214 22.522,59.714 21.942,59.714 21.942,58.749 21.169,58.749 21.169,55.528 18.271,55.528   18.271,57.847 16.018,57.847 16.018,52.761 13.187,52.761 13.187,53.79 12.606,53.79 12.606,48.382 11.77,48.382 11.77,46.966   11.446,46.966 11.446,48.382 10.03,48.382 10.03,59.586 8.871,59.586 8.871,58.169 6.65,58.169 6.65,58.459 5.298,58.459   5.298,60.675 5.291,60.675 5.293,62.759 94.709,62.759 94.709,60.675 "></polygon></svg>