<svg xmlns="http://www.w3.org/2000/svg" xmlns:xlink="http://www.w3.org/1999/xlink" version="1.1" x="0px" y="0px" viewBox="0 0 100 100" enable-background="new 0 0 100 100" xml:space="preserve"><g><path d="M69.3,44.3c-0.3-2.6-0.7-5.3-1.5-6.5c-1.9-2.7-7.2-4.7-9.7-7.3c-2.5-2.6-4.1-4.6-8.1-4.6V26c0,0,0,0,0,0c0,0,0,0,0,0v-0.1   c-4,0-5.5,2-8.1,4.6c-2.5,2.7-7.8,4.6-9.7,7.3c-0.8,1.2-1.3,3.9-1.5,6.5c5.9-0.6,12.4-1.1,19.3-1.1C56.9,43.2,63.4,43.8,69.3,44.3z   "></path></g><path d="M50,49.6c-24.9,0-45,4.1-45,9.2c0,5.1,20.1,9.2,45,9.2c24.9,0,45-4.1,45-9.2C95,53.7,74.9,49.6,50,49.6z M50,64.2  c-10.9,0-19.8-1.6-19.8-3.7c0-2,8.9-3.7,19.8-3.7c10.9,0,19.8,1.6,19.8,3.7C69.8,62.6,60.9,64.2,50,64.2z"></path></svg>