<svg xmlns="http://www.w3.org/2000/svg" xmlns:xlink="http://www.w3.org/1999/xlink" version="1.0" x="0px" y="0px" viewBox="0 0 94.7 132.7" enable-background="new 0 0 94.7 132.7" xml:space="preserve"><g><path d="M80.7,50.8l-1.4-7l-0.4,2h-1.2v-6h0h0l-1.4-7L75.6,36l-2.2-10.7c0.3-0.1,0.5-0.4,0.5-0.7c0-0.4-0.3-0.8-0.8-0.8   s-0.8,0.3-0.8,0.8c0,0.3,0.2,0.6,0.5,0.7l-2.2,10.9l-0.7-3.3l-1.4,7h0v1v5h-1.2l-0.4-2l-1.4,7h0v0l0,0h0v7v1v7h-1v-1h-1v1h-1v-1h-1   v1h-1v-1h-1v1h-1v-13v-1v-5h0l-1.4-7l-0.5,2.7l-1.6-7.7L54.7,37l-1.6-7.2l-0.5,2.6l-3.2-18.1c0.3-0.1,0.5-0.4,0.5-0.7   c0-0.4-0.3-0.8-0.8-0.8s-0.8,0.3-0.8,0.8c0,0.3,0.2,0.6,0.5,0.7l-3.3,18.2l-0.5-2.7l-1.5,7h0v0l0,0.2l-0.5-2.3l-1.6,7.7l-0.5-2.7   l-1.4,7h0v1v4v1v13h-1v-1h-1v1h-1v-1h-1v1h-1v-1h-1v1h-1v-15h0l-1.4-7l-0.4,2h-1.2v-6h0h0l-1.4-7L27.6,36l-2.2-10.7   c0.3-0.1,0.5-0.4,0.5-0.7c0-0.4-0.3-0.8-0.8-0.8s-0.8,0.3-0.8,0.8c0,0.3,0.2,0.6,0.5,0.7l-2.2,10.9l-0.7-3.3l-1.4,7h0v1v5h-1.2   l-0.4-2l-1.4,7h0v0l0,0h0v7v1v57v1v1v1h1h1h1h1h1h5h1h1h1h1h1h7h1h1h1h1h1h9h1h1h1h1h1h7h1h1h1h1h1h5h1h1h1h1h1h0L80.7,50.8   L80.7,50.8z M77.7,94.8h-1v-1h1V94.8z M75.7,106.8h-1v-1h1V106.8z M75.7,104.8h-1h-1h-1h-1h-1v-8h1h1v-1v-1h1v1v1h1h1V104.8z    M70.7,105.8h1v1h-1V105.8z M68.7,72.8h1v1h-1V72.8z M72.7,56.8v-2h1v2h1v-2h1v3h-5v-3h1v2H72.7z M76.7,51.3L76.7,51.3   c0-0.3,0.2-0.5,0.5-0.5h0c0.3,0,0.4,0.2,0.5,0.4v0.6h-1V51.3z M75.7,58.8v2h-1h-1h-1h-1h-1v-2H75.7z M75.7,62.8h-1v-1h1V62.8z    M71.7,61.8v1h-1v-1H71.7z M70.7,63.8h1h1v-1v-1h1v1v1h1h1v8h-1h-1h-1h-1h-1V63.8z M70.7,74.8h1h1v-1v-1h1v1v1h1h1v8h-1h-1h-1h-1   h-1V74.8z M75.7,84.8h-1v-1h1V84.8z M71.7,83.8v1h-1v-1H71.7z M70.7,94.8h1v1h-1V94.8z M70.7,93.8v-8h1h1v-1v-1h1v1v1h1h1v8h-1h-1   h-1h-1H70.7z M75.7,94.8v1h-1v-1H75.7z M75.7,73.8h-1v-1h1V73.8z M71.7,72.8v1h-1v-1H71.7z M68.7,74.8h1v8v1v9h-1V74.8z M68.7,93.8   h1v1h-1V93.8z M77.7,92.8h-1v-20h1V92.8z M77.7,71.8h-1v-13h1V71.8z M76.7,57.8v-5h1v5H76.7z M78,50.1c-0.2-0.2-0.5-0.3-0.8-0.3   h0.9L78,50.1z M75.7,51.2L75.7,51.2l0,2.6h-1h-1h-1h-1h-1v-2.6h0c-0.1-0.8-0.7-1.4-1.5-1.4h8C76.4,49.8,75.8,50.4,75.7,51.2z    M68.7,51.3L68.7,51.3c0-0.3,0.2-0.5,0.5-0.5h0c0.3,0,0.4,0.2,0.5,0.4v0.6h-1V51.3z M68.3,50.1l-0.1-0.3h0.9   C68.8,49.8,68.6,49.9,68.3,50.1z M68.7,52.8h1v1v1v3h-1V52.8z M69.7,58.8v2v1v10h-1v-13H69.7z M68.7,95.8h1v9v1v10h-1V95.8z    M70.7,107.8h1h1v-1v-1h1v1v1h1h1v8h-5V107.8z M76.7,95.8h1v20h-1V95.8z M78.7,58.8h1v57h-1V58.8z M78.7,57.8v-6h1v6H78.7z    M79.6,50.8H79l0.3-1.5L79.6,50.8z M71.7,40.3h3v0.5h-3V40.3z M71.7,41.8h3v4h-1h-1h-1V41.8z M75.7,41.8L75.7,41.8l0-1h1v5h-1V41.8   z M76.5,39.8h-0.6l0.3-1.5L76.5,39.8z M73.2,29.5l1.9,9.3l-0.1,0.5h-3.6l-0.1-0.4L73.2,29.5z M70.4,39.8h-0.6l0.3-1.5L70.4,39.8z    M69.7,40.8h1v5h-1V40.8z M68.7,46.8v1h1v-1h1v1h1v-1h1v1h1v-1h1v1h1v-1h1v1h1v-1h1l-0.4,2H68.1l-0.4-2H68.7z M67.4,50.8h-0.6   l0.3-1.5L67.4,50.8z M66.7,51.8h1v6h-1V51.8z M67.7,58.8v57h-1v-57H67.7z M42.2,42.4L42.2,42.4L42.2,42.4L42.2,42.4z M42.7,42.8h1   v1h1v-1h1v1h1v-1h1v1h1v-1h1v1h1v-1h1v1h1v-1h1v1h1v-1h1v2.1c-0.1-0.1-0.3-0.1-0.5-0.1h0c-0.8,0-1.4,0.6-1.5,1.3h0v0.7v1h-1h-1h-1   h-1h-1h-1h-1h-1h-1v-1.7h0c-0.1-0.7-0.7-1.3-1.5-1.3h0c-0.2,0-0.3,0-0.5,0.1V42.8z M46.4,35.8H52l-0.2,1h-0.1h-1h-1h-1h-1h-1h-0.1   L46.4,35.8z M46.3,34.8l2.9-16.1l2.9,16.1H46.3z M46.7,37.8v1h1v-1h1v1h1v-1h1v1h1v-1h1v1h1h0.7l-0.6,3h-0.1h-1h-1h-1h-1h-1h-1h-1   h-1h-1h-0.1l-0.6-3h0.7h1v-1H46.7z M58.7,72.8h7v7h-7V72.8z M65.7,100.8h-7v-7h7V100.8z M65.7,92.8h-7v-12h7V92.8z M57.7,94.8h-1   v-1h1V94.8z M43.7,46.8h-1h0v-0.5l0,0c0-0.3,0.2-0.5,0.5-0.5h0c0.3,0,0.4,0.2,0.5,0.4V46.8z M46.7,49.8v-1h1v1h1v-1h1v1h1v-1h1v1h1   v-1h1v3h-9v-3h1v1H46.7z M53.7,52.8v1h-9v-1H53.7z M53.7,54.8v17h-9v-17H53.7z M53.7,72.8v21h-9v-21H53.7z M54.7,72.8h1v21h-1V72.8   z M55.7,71.8h-1v-17v-1v-1h1V71.8z M54.7,51.8v-3v-1h1v4H54.7z M54.7,46.3L54.7,46.3c0-0.3,0.2-0.5,0.5-0.5h0   c0.3,0,0.5,0.2,0.5,0.5v0.5h0h-1V46.3z M42.7,47.8h1v1v3h-1V47.8z M43.7,52.8v1v1v17h-1v-19H43.7z M43.7,72.8v21h-1v-21H43.7z    M41.7,94.8h-1v-1h1V94.8z M32.7,80.8h7v12h-7V80.8z M32.7,93.8h7v7h-7V93.8z M39.7,79.8h-7v-7h7V79.8z M31.7,51.8v6h-1v-6H31.7z    M29.7,94.8h-1v-1h1V94.8z M27.7,106.8h-1v-1h1V106.8z M27.7,104.8h-1h-1h-1h-1h-1v-8h1h1v-1v-1h1v1v1h1h1V104.8z M22.7,105.8h1v1   h-1V105.8z M20.7,74.8h1v8v1v9h-1V74.8z M24.7,56.8v-2h1v2h1v-2h1v3h-5v-3h1v2H24.7z M28.7,51.3L28.7,51.3c0-0.3,0.2-0.5,0.5-0.5h0   c0.3,0,0.4,0.2,0.5,0.4v0.6h-1V51.3z M27.7,58.8v2h-1h-1h-1h-1h-1v-2H27.7z M27.7,62.8h-1v-1h1V62.8z M23.7,61.8v1h-1v-1H23.7z    M22.7,63.8h1h1v-1v-1h1v1v1h1h1v8h-1h-1h-1h-1h-1V63.8z M22.7,74.8h1h1v-1v-1h1v1v1h1h1v8h-1h-1h-1h-1h-1V74.8z M27.7,84.8h-1v-1   h1V84.8z M23.7,83.8v1h-1v-1H23.7z M22.7,94.8h1v1h-1V94.8z M22.7,93.8v-8h1h1v-1v-1h1v1v1h1h1v8h-1h-1h-1h-1H22.7z M27.7,94.8v1   h-1v-1H27.7z M27.7,73.8h-1v-1h1V73.8z M23.7,72.8v1h-1v-1H23.7z M20.7,93.8h1v1h-1V93.8z M29.7,92.8h-1v-20h1V92.8z M28.7,71.8   v-13h1v13H28.7z M28.7,57.8v-5h1v5H28.7z M30,50.1c-0.2-0.2-0.5-0.3-0.8-0.3h0.9L30,50.1z M27.7,51.1L27.7,51.1l-0.1,2.7h-1h-1h-1   h-1h-1v-2.7h0c-0.1-0.7-0.7-1.3-1.5-1.3h8C28.4,49.8,27.8,50.4,27.7,51.1z M20.7,51.3L20.7,51.3c0-0.3,0.2-0.5,0.5-0.5h0   c0.3,0,0.4,0.2,0.5,0.4v0.6h-1V51.3z M20.3,50.1l-0.1-0.3h0.9C20.8,49.8,20.6,49.9,20.3,50.1z M20.7,52.8h1v1v1v3h-1V52.8z    M21.7,58.8v2v1v10h-1v-13H21.7z M21.7,72.8v1h-1v-1H21.7z M20.7,95.8h1v9v1v10h-1V95.8z M22.7,107.8h1h1v-1v-1h1v1v1h1h1v8h-5   V107.8z M28.7,95.8h1v20h-1V95.8z M30.7,72.8v-1v-13h1v57h-1V72.8z M32.7,101.8h7v14h-7V101.8z M40.7,95.8h1v20h-1V95.8z    M42.7,94.8h1v21h-1V94.8z M44.7,94.8h9v20h-9V94.8z M54.7,94.8h1v21h-1V94.8z M56.7,95.8h1v20h-1V95.8z M58.7,101.8h7v14h-7V101.8   z M59.7,66.8h1h1h1h1h1h1v5h-7v-5H59.7z M57.7,92.8h-1v-40h1V92.8z M56.7,51.8v-4h1v4H56.7z M57.6,46.8H57l0.3-1.5L57.6,46.8z    M55.5,41.8h-0.6l0.3-1.5L55.5,41.8z M53.5,36.8h-0.6l0.3-1.5L53.5,36.8z M45.5,36.8h-0.6l0.3-1.5L45.5,36.8z M43.5,41.8h-0.6   l0.3-1.5L43.5,41.8z M41.7,42.8L41.7,42.8L41.7,42.8L41.7,42.8z M41.4,46.8h-0.6l0.3-1.5L41.4,46.8z M40.7,47.8h1v4h-1V47.8z    M41.7,52.8v19v1v20h-1v-40H41.7z M33.7,66.8h1h1h1h1h1h1v5h-7v-5H33.7z M31.6,50.8H31l0.3-1.5L31.6,50.8z M23.7,40.3h3v0.5h-3   V40.3z M23.7,41.8h3v4h-1h-1h-1V41.8z M27.7,41.8L27.7,41.8l0-1h1v5h-1V41.8z M28.5,39.8h-0.6l0.3-1.5L28.5,39.8z M25.2,29.5   l1.9,9.3l-0.1,0.5h-3.6l-0.1-0.4L25.2,29.5z M22.4,39.8h-0.6l0.3-1.5L22.4,39.8z M21.7,40.8h1v5h-1V40.8z M20.7,46.8v1h1v-1h1v1h1   v-1h1v1h1v-1h1v1h1v-1h1v1h1v-1h1l-0.4,2H20.1l-0.4-2H20.7z M19.4,50.8h-0.6l0.3-1.5L19.4,50.8z M18.7,51.8h1v6h-1V51.8z    M18.7,58.8h1v13v1v43h-1V58.8z M18.7,117.8v-1h1v1H18.7z M20.7,117.8v-1h1v1H20.7z M22.7,117.8v-1h5v1H22.7z M28.7,117.8v-1h1v1   H28.7z M30.7,117.8v-1h1v1H30.7z M32.7,117.8v-1h7v1H32.7z M40.7,117.8v-1h1v1H40.7z M42.7,117.8v-1h1v1H42.7z M47.5,117.8   c0.3-0.6,0.9-0.9,1.7-0.9h0c0.8,0,1.4,0.4,1.7,0.9H47.5z M52.1,117.8c-0.3-1.1-1.5-1.9-2.9-1.9h-0.1c-1.4,0-2.6,0.8-2.9,1.9h-1.6   v-2h9v1v1H52.1z M54.7,117.8v-1h1v1H54.7z M56.7,117.8v-1h1v1H56.7z M58.7,117.8v-1h7v1H58.7z M66.7,117.8v-1h1v1H66.7z    M68.7,117.8v-1h1v1H68.7z M70.7,117.8v-1h5v1H70.7z M76.7,117.8v-1h1v1H76.7z M78.7,117.8v-1h1v1H78.7z"></path><path d="M25.7,65.3c0-0.3-0.2-0.5-0.5-0.5s-0.5,0.2-0.5,0.5v5.5h1V65.3z"></path><path d="M25.7,76.3c0-0.3-0.2-0.5-0.5-0.5s-0.5,0.2-0.5,0.5v5.5h1V76.3z"></path><path d="M25.7,87.3c0-0.3-0.2-0.5-0.5-0.5s-0.5,0.2-0.5,0.5v5.5h1V87.3z"></path><path d="M25.2,97.8c-0.3,0-0.5,0.2-0.5,0.5v5.5h1v-5.5C25.7,98.1,25.4,97.8,25.2,97.8z"></path><path d="M25.2,108.8c-0.3,0-0.5,0.2-0.5,0.5v5.5h1v-5.5C25.7,109.1,25.4,108.8,25.2,108.8z"></path><path d="M73.7,65.3c0-0.3-0.2-0.5-0.5-0.5s-0.5,0.2-0.5,0.5v5.5h1V65.3z"></path><path d="M73.7,76.3c0-0.3-0.2-0.5-0.5-0.5s-0.5,0.2-0.5,0.5v5.5h1V76.3z"></path><path d="M73.7,87.3c0-0.3-0.2-0.5-0.5-0.5s-0.5,0.2-0.5,0.5v5.5h1V87.3z"></path><path d="M73.2,97.8c-0.3,0-0.5,0.2-0.5,0.5v5.5h1v-5.5C73.7,98.1,73.4,97.8,73.2,97.8z"></path><path d="M73.2,108.8c-0.3,0-0.5,0.2-0.5,0.5v5.5h1v-5.5C73.7,109.1,73.4,108.8,73.2,108.8z"></path><path d="M49.2,75.8c-0.3,0-0.5,0.2-0.5,0.5v4.5h1v-4.5C49.7,76.1,49.4,75.8,49.2,75.8z"></path><path d="M49.2,97.8c-0.3,0-0.5,0.2-0.5,0.5v3.5h1v-3.5C49.7,98.1,49.4,97.8,49.2,97.8z"></path><rect x="48.7" y="81.8" width="1" height="4"></rect><rect x="48.7" y="86.8" width="1" height="4"></rect><rect x="48.7" y="102.8" width="1" height="4"></rect><rect x="48.7" y="107.8" width="1" height="4"></rect><path d="M36.2,78.3c1.1,0,2-0.9,2-2c0-1.1-0.9-2-2-2s-2,0.9-2,2C34.2,77.4,35.1,78.3,36.2,78.3z M36.2,75.3c0.6,0,1,0.4,1,1   c0,0.6-0.4,1-1,1s-1-0.4-1-1C35.2,75.8,35.6,75.3,36.2,75.3z"></path><path d="M36.2,95.3c-1.1,0-2,0.9-2,2c0,1.1,0.9,2,2,2s2-0.9,2-2C38.2,96.2,37.3,95.3,36.2,95.3z M36.2,98.3c-0.6,0-1-0.4-1-1   c0-0.6,0.4-1,1-1s1,0.4,1,1C37.2,97.9,36.7,98.3,36.2,98.3z"></path><path d="M62.2,74.3c-1.1,0-2,0.9-2,2c0,1.1,0.9,2,2,2s2-0.9,2-2C64.2,75.2,63.3,74.3,62.2,74.3z M62.2,77.3c-0.6,0-1-0.4-1-1   c0-0.6,0.4-1,1-1s1,0.4,1,1C63.2,76.9,62.7,77.3,62.2,77.3z"></path><path d="M62.2,99.3c1.1,0,2-0.9,2-2c0-1.1-0.9-2-2-2s-2,0.9-2,2C60.2,98.4,61.1,99.3,62.2,99.3z M62.2,96.3c0.6,0,1,0.4,1,1   c0,0.6-0.4,1-1,1s-1-0.4-1-1C61.2,96.8,61.6,96.3,62.2,96.3z"></path><path d="M36.2,84.8L36.2,84.8c-0.8,0-1.5,0.7-1.5,1.5v5.5h3v-5.5C37.7,85.5,37,84.8,36.2,84.8z M36.7,90.8h-1l0-4.5   c0-0.3,0.2-0.5,0.5-0.5h0c0.3,0,0.5,0.2,0.5,0.5L36.7,90.8z"></path><path d="M36.2,105.8L36.2,105.8c-0.8,0-1.5,0.7-1.5,1.5v7.5h3v-7.5C37.7,106.5,37,105.8,36.2,105.8z M36.7,113.8h-1l0-6.5   c0-0.3,0.2-0.5,0.5-0.5h0c0.3,0,0.5,0.2,0.5,0.5L36.7,113.8z"></path><path d="M63.7,91.8v-5.5c0-0.8-0.7-1.5-1.5-1.5h0c-0.8,0-1.5,0.7-1.5,1.5v5.5H63.7z M61.7,86.3c0-0.3,0.2-0.5,0.5-0.5h0   c0.3,0,0.5,0.2,0.5,0.5l0,4.5h-1L61.7,86.3z"></path><path d="M62.2,105.8L62.2,105.8c-0.8,0-1.5,0.7-1.5,1.5v7.5h3v-7.5C63.7,106.5,63,105.8,62.2,105.8z M62.7,113.8h-1l0-6.5   c0-0.3,0.2-0.5,0.5-0.5h0c0.3,0,0.5,0.2,0.5,0.5L62.7,113.8z"></path><path d="M51.7,70.8v-9.5c0-1.4-1.1-2.5-2.5-2.5h-0.1c-1.4,0-2.5,1.1-2.5,2.5v9.5H51.7z M47.7,61.4c0-0.8,0.7-1.5,1.5-1.5h0   c0.8,0,1.5,0.7,1.5,1.5l0,8.5h-3L47.7,61.4z"></path><path d="M51.7,92.8V76.4c0-1.4-1.1-2.5-2.5-2.5h-0.1c-1.4,0-2.5,1.1-2.5,2.5v16.5H51.7z M47.7,76.4c0-0.8,0.7-1.5,1.5-1.5h0   c0.8,0,1.5,0.7,1.5,1.5l0,15.5h-3L47.7,76.4z"></path><path d="M49.2,95.9L49.2,95.9c-1.4,0-2.5,1.1-2.5,2.5v15.5h5V98.4C51.7,97,50.6,95.9,49.2,95.9z M50.7,112.8h-3l0-14.5   c0-0.8,0.7-1.5,1.5-1.5h0c0.8,0,1.5,0.7,1.5,1.5L50.7,112.8z"></path><path d="M49.7,12.3v-1c0-0.3-0.2-0.5-0.5-0.5s-0.5,0.2-0.5,0.5v1c0,0.3,0.2,0.5,0.5,0.5S49.7,12.6,49.7,12.3z"></path></g></svg>